# xmcd
#
# Track frame offsets:
#	150
#	11386
#	27003
#	45725
#	58526
#	75510
#	95232
#	109661
#	128359
#	143758
#	157748
#
# Disc length: 2331 seconds
# Revision: 0
# Processed by: cddbd v1.5.2PL0 Copyright (c) Steve Scherf et al.
# Submitted via: dBpowerAMP V12.0
#
DISCID=7709190b
DTITLE=Tweed Funk - First Name Lucky
DYEAR=2014
DGENRE=Blues
TTITLE0=Blues in My Soul
TTITLE1=Time to Burn
TTITLE2=Let the Good Times Roll
TTITLE3=Hoodoo Power
TTITLE4=Divided
TTITLE5=Sugarfoot
TTITLE6=Deed Is Done
TTITLE7=I Got Loaded
TTITLE8=Sippin' Misery
TTITLE9=Knock on Wood
TTITLE10=Get It On
EXTD=
EXTT0=
EXTT1=
EXTT2=
EXTT3=
EXTT4=
EXTT5=
EXTT6=
EXTT7=
EXTT8=
EXTT9=
EXTT10=
PLAYORDER=
